<mxfile host="app.diagrams.net" agent="Mozilla/5.0 (Windows NT 10.0; Win64; x64) AppleWebKit/537.36 (KHTML, like Gecko) Chrome/141.0.0.0 Safari/537.36" version="28.2.7">
  <diagram name="Page-1" id="NR10CQfBz_dSeDb_2JA8">
    <mxGraphModel dx="942" dy="608" grid="1" gridSize="10" guides="1" tooltips="1" connect="1" arrows="1" fold="1" page="1" pageScale="1" pageWidth="827" pageHeight="1169" math="0" shadow="0">
      <root>
        <mxCell id="0" />
        <mxCell id="1" parent="0" />
        <mxCell id="WlbrQ_i3VRHhpbhJyUkJ-1" value="前海前端" style="shape=umlLifeline;perimeter=lifelinePerimeter;whiteSpace=wrap;html=1;container=1;dropTarget=0;collapsible=0;recursiveResize=0;outlineConnect=0;portConstraint=eastwest;newEdgeStyle={&quot;curved&quot;:0,&quot;rounded&quot;:0};" vertex="1" parent="1">
          <mxGeometry x="180" y="360" width="100" height="310" as="geometry" />
        </mxCell>
        <mxCell id="WlbrQ_i3VRHhpbhJyUkJ-4" value="" style="html=1;points=[[0,0,0,0,5],[0,1,0,0,-5],[1,0,0,0,5],[1,1,0,0,-5]];perimeter=orthogonalPerimeter;outlineConnect=0;targetShapes=umlLifeline;portConstraint=eastwest;newEdgeStyle={&quot;curved&quot;:0,&quot;rounded&quot;:0};" vertex="1" parent="WlbrQ_i3VRHhpbhJyUkJ-1">
          <mxGeometry x="45" y="110" width="10" height="180" as="geometry" />
        </mxCell>
        <mxCell id="WlbrQ_i3VRHhpbhJyUkJ-5" value="链接拼接双阳的code参数到前端" style="html=1;verticalAlign=bottom;startArrow=oval;endArrow=block;startSize=8;curved=0;rounded=0;entryX=0;entryY=0;entryDx=0;entryDy=5;" edge="1" target="WlbrQ_i3VRHhpbhJyUkJ-4" parent="WlbrQ_i3VRHhpbhJyUkJ-1">
          <mxGeometry relative="1" as="geometry">
            <mxPoint x="-150" y="115" as="sourcePoint" />
          </mxGeometry>
        </mxCell>
        <mxCell id="WlbrQ_i3VRHhpbhJyUkJ-18" value="" style="html=1;points=[[0,0,0,0,5],[0,1,0,0,-5],[1,0,0,0,5],[1,1,0,0,-5]];perimeter=orthogonalPerimeter;outlineConnect=0;targetShapes=umlLifeline;portConstraint=eastwest;newEdgeStyle={&quot;curved&quot;:0,&quot;rounded&quot;:0};" vertex="1" parent="WlbrQ_i3VRHhpbhJyUkJ-1">
          <mxGeometry x="50" y="270" width="10" height="40" as="geometry" />
        </mxCell>
        <mxCell id="WlbrQ_i3VRHhpbhJyUkJ-19" value="获取token，进行后续&lt;div&gt;页面展示&lt;/div&gt;" style="html=1;align=left;spacingLeft=2;endArrow=block;rounded=0;edgeStyle=orthogonalEdgeStyle;curved=0;rounded=0;" edge="1" target="WlbrQ_i3VRHhpbhJyUkJ-18" parent="WlbrQ_i3VRHhpbhJyUkJ-1">
          <mxGeometry relative="1" as="geometry">
            <mxPoint x="55" y="250" as="sourcePoint" />
            <Array as="points">
              <mxPoint x="85" y="280" />
            </Array>
          </mxGeometry>
        </mxCell>
        <mxCell id="WlbrQ_i3VRHhpbhJyUkJ-2" value="前海后端" style="shape=umlLifeline;perimeter=lifelinePerimeter;whiteSpace=wrap;html=1;container=1;dropTarget=0;collapsible=0;recursiveResize=0;outlineConnect=0;portConstraint=eastwest;newEdgeStyle={&quot;curved&quot;:0,&quot;rounded&quot;:0};" vertex="1" parent="1">
          <mxGeometry x="350" y="360" width="100" height="300" as="geometry" />
        </mxCell>
        <mxCell id="WlbrQ_i3VRHhpbhJyUkJ-6" value="" style="html=1;points=[[0,0,0,0,5],[0,1,0,0,-5],[1,0,0,0,5],[1,1,0,0,-5]];perimeter=orthogonalPerimeter;outlineConnect=0;targetShapes=umlLifeline;portConstraint=eastwest;newEdgeStyle={&quot;curved&quot;:0,&quot;rounded&quot;:0};" vertex="1" parent="WlbrQ_i3VRHhpbhJyUkJ-2">
          <mxGeometry x="45" y="110" width="10" height="130" as="geometry" />
        </mxCell>
        <mxCell id="WlbrQ_i3VRHhpbhJyUkJ-3" value="双阳" style="shape=umlLifeline;perimeter=lifelinePerimeter;whiteSpace=wrap;html=1;container=1;dropTarget=0;collapsible=0;recursiveResize=0;outlineConnect=0;portConstraint=eastwest;newEdgeStyle={&quot;curved&quot;:0,&quot;rounded&quot;:0};" vertex="1" parent="1">
          <mxGeometry x="710" y="360" width="100" height="300" as="geometry" />
        </mxCell>
        <mxCell id="WlbrQ_i3VRHhpbhJyUkJ-9" value="" style="html=1;points=[[0,0,0,0,5],[0,1,0,0,-5],[1,0,0,0,5],[1,1,0,0,-5]];perimeter=orthogonalPerimeter;outlineConnect=0;targetShapes=umlLifeline;portConstraint=eastwest;newEdgeStyle={&quot;curved&quot;:0,&quot;rounded&quot;:0};" vertex="1" parent="WlbrQ_i3VRHhpbhJyUkJ-3">
          <mxGeometry x="45" y="110" width="10" height="130" as="geometry" />
        </mxCell>
        <mxCell id="WlbrQ_i3VRHhpbhJyUkJ-7" value="前端携带code，调用后端接口" style="html=1;verticalAlign=bottom;endArrow=block;curved=0;rounded=0;entryX=0;entryY=0;entryDx=0;entryDy=5;" edge="1" target="WlbrQ_i3VRHhpbhJyUkJ-6" parent="1" source="WlbrQ_i3VRHhpbhJyUkJ-1">
          <mxGeometry relative="1" as="geometry">
            <mxPoint x="325" y="475" as="sourcePoint" />
          </mxGeometry>
        </mxCell>
        <mxCell id="WlbrQ_i3VRHhpbhJyUkJ-10" value="后端使用code，调用&lt;span style=&quot;font-family: &amp;quot;JetBrains Mono&amp;quot;, monospace; font-size: 10.5pt; background-color: rgb(30, 31, 34);&quot;&gt;/topapi/oauth/getUserInfo接口&lt;/span&gt;" style="html=1;verticalAlign=bottom;endArrow=block;curved=0;rounded=0;entryX=0;entryY=0;entryDx=0;entryDy=5;labelBorderColor=none;fontColor=none;noLabel=1;" edge="1" target="WlbrQ_i3VRHhpbhJyUkJ-9" parent="1" source="WlbrQ_i3VRHhpbhJyUkJ-2">
          <mxGeometry relative="1" as="geometry">
            <mxPoint x="605" y="475" as="sourcePoint" />
          </mxGeometry>
        </mxCell>
        <mxCell id="WlbrQ_i3VRHhpbhJyUkJ-13" value="&lt;span style=&quot;font-size: 11px; text-wrap-mode: nowrap; background-color: rgb(255, 255, 255);&quot;&gt;后端/topapi/token/getToken接口，获取accessToken&lt;/span&gt;" style="text;html=1;whiteSpace=wrap;strokeColor=none;fillColor=none;align=center;verticalAlign=middle;rounded=0;" vertex="1" parent="1">
          <mxGeometry x="540" y="450" width="60" height="30" as="geometry" />
        </mxCell>
        <mxCell id="WlbrQ_i3VRHhpbhJyUkJ-15" value="返回accessToken" style="html=1;verticalAlign=bottom;endArrow=open;dashed=1;endSize=8;curved=0;rounded=0;" edge="1" parent="1" source="WlbrQ_i3VRHhpbhJyUkJ-3">
          <mxGeometry relative="1" as="geometry">
            <mxPoint x="630" y="510" as="sourcePoint" />
            <mxPoint x="550" y="510" as="targetPoint" />
          </mxGeometry>
        </mxCell>
        <mxCell id="WlbrQ_i3VRHhpbhJyUkJ-16" value="携带accessToken和code，请求/topapi/oauth/getUserInfo接口" style="html=1;verticalAlign=bottom;endArrow=block;curved=0;rounded=0;" edge="1" parent="1">
          <mxGeometry width="80" relative="1" as="geometry">
            <mxPoint x="414" y="550" as="sourcePoint" />
            <mxPoint x="753.5" y="550" as="targetPoint" />
          </mxGeometry>
        </mxCell>
        <mxCell id="WlbrQ_i3VRHhpbhJyUkJ-17" value="返回用户信息" style="html=1;verticalAlign=bottom;endArrow=open;dashed=1;endSize=8;curved=0;rounded=0;" edge="1" parent="1">
          <mxGeometry relative="1" as="geometry">
            <mxPoint x="750" y="585" as="sourcePoint" />
            <mxPoint x="540" y="585" as="targetPoint" />
          </mxGeometry>
        </mxCell>
        <mxCell id="WlbrQ_i3VRHhpbhJyUkJ-8" value="响应前海系统token" style="html=1;verticalAlign=bottom;endArrow=open;dashed=1;endSize=8;curved=0;rounded=0;exitX=0;exitY=1;exitDx=0;exitDy=-5;" edge="1" source="WlbrQ_i3VRHhpbhJyUkJ-6" parent="1" target="WlbrQ_i3VRHhpbhJyUkJ-1">
          <mxGeometry relative="1" as="geometry">
            <mxPoint x="320" y="595" as="targetPoint" />
          </mxGeometry>
        </mxCell>
      </root>
    </mxGraphModel>
  </diagram>
</mxfile>
